REM DIRINDEX 1\8,1\2\11,1\3\12,1\3\14,1\5\15,1\5\16,1\6\17,1\6\18,1\4\19,1\4\20,1\4\21,1\4\22,1\7\23,1\7\24,1\7\25,1\2\9\26,1\2\9\27,1\2\10\28,1\2\10\29,1\2\10\30,1\2\10\31,1\2\10\32,1\3\13\33,1\3\13\34,1\3\13\35
REM DIRNAME cjc123,folder01,folder02,folder03,folder04,folder05,folder06,folder07,folder08,folder09,folder10,folder11,folder12,folder13,folder14,folder15,folder16,folder17,folder18,folder19,folder20,folder21,folder22,folder23,folder24,folder25,folder26,folder27,folder28,folder29,folder30,folder31,folder32,folder33,folder34
TITLE ""
FILE "95 095_UNIT4_WARM-UP-40.mp3" MP3
  TRACK 01 AUDIO
    TITLE "14:cjc123_8096"
    INDEX 01 00:00:00
  TRACK 02 AUDIO
    TITLE "0:"
    INDEX 01 00:02:63
  TRACK 03 AUDIO
    TITLE "12:cjc123_8097"
    INDEX 01 00:03:43
  TRACK 04 AUDIO
    TITLE "0:"
    INDEX 01 00:04:48
  TRACK 05 AUDIO
    TITLE "12:cjc123_8098"
    INDEX 01 00:05:24
  TRACK 06 AUDIO
    TITLE "0:"
    INDEX 01 00:06:45
  TRACK 07 AUDIO
    TITLE "12:cjc123_8099"
    INDEX 01 00:07:21
  TRACK 08 AUDIO
    TITLE "0:"
    INDEX 01 00:08:30
  TRACK 09 AUDIO
    TITLE "12:cjc123_8100"
    INDEX 01 00:09:16
  TRACK 10 AUDIO
    TITLE "0:"
    INDEX 01 00:10:33
  TRACK 11 AUDIO
    TITLE "12:cjc123_8101"
    INDEX 01 00:11:13
  TRACK 12 AUDIO
    TITLE "0:"
    INDEX 01 00:12:09
  TRACK 13 AUDIO
    TITLE "12:cjc123_8102"
    INDEX 01 00:12:67
  TRACK 14 AUDIO
    TITLE "0:"
    INDEX 01 00:14:06
  TRACK 15 AUDIO
    TITLE "12:cjc123_8103"
    INDEX 01 00:14:56
  TRACK 16 AUDIO
    TITLE "0:"
    INDEX 01 00:15:60
  TRACK 17 AUDIO
    TITLE "12:cjc123_8104"
    INDEX 01 00:16:34
  TRACK 18 AUDIO
    TITLE "0:"
    INDEX 01 00:17:31
  TRACK 19 AUDIO
    TITLE "12:cjc123_8105"
    INDEX 01 00:18:07
  TRACK 20 AUDIO
    TITLE "0:"
    INDEX 01 00:19:42
  TRACK 21 AUDIO
    TITLE "12:cjc123_8106"
    INDEX 01 00:20:18
  TRACK 22 AUDIO
    TITLE "0:"
    INDEX 01 00:21:29
  TRACK 23 AUDIO
    TITLE "12:cjc123_8107"
    INDEX 01 00:22:05
  TRACK 24 AUDIO
    TITLE "0:"
    INDEX 01 00:23:14
  TRACK 25 AUDIO
    TITLE "12:cjc123_8108"
    INDEX 01 00:23:63
  TRACK 26 AUDIO
    TITLE "0:"
    INDEX 01 00:24:74
  TRACK 27 AUDIO
    TITLE "12:cjc123_8109"
    INDEX 01 00:25:54
  TRACK 28 AUDIO
    TITLE "0:"
    INDEX 01 00:26:44
  TRACK 29 AUDIO
    TITLE "12:cjc123_8110"
    INDEX 01 00:27:26
  TRACK 30 AUDIO
    TITLE "0:"
    INDEX 01 00:28:29
  TRACK 31 AUDIO
    TITLE "12:cjc123_8111"
    INDEX 01 00:29:15
  TRACK 32 AUDIO
    TITLE "0:"
    INDEX 01 00:30:14
  TRACK 33 AUDIO
    TITLE "12:cjc123_8112"
    INDEX 01 00:30:67
  TRACK 34 AUDIO
    TITLE "0:"
    INDEX 01 00:31:65
  TRACK 35 AUDIO
    TITLE "12:cjc123_8113"
    INDEX 01 00:32:50
  TRACK 36 AUDIO
    TITLE "0:"
    INDEX 01 00:33:42
  TRACK 37 AUDIO
    TITLE "12:cjc123_8114"
    INDEX 01 00:34:24
  TRACK 38 AUDIO
    TITLE "0:"
    INDEX 01 00:35:57
  TRACK 39 AUDIO
    TITLE "12:cjc123_8115"
    INDEX 01 00:36:33
  TRACK 40 AUDIO
    TITLE "0:"
    INDEX 01 00:37:32
  TRACK 41 AUDIO
    TITLE "12:cjc123_8116"
    INDEX 01 00:38:31
  TRACK 42 AUDIO
    TITLE "0:"
    INDEX 01 00:39:21
  TRACK 43 AUDIO
    TITLE "12:cjc123_8117"
    INDEX 01 00:40:07
  TRACK 44 AUDIO
    TITLE "0:"
    INDEX 01 00:41:24
  TRACK 45 AUDIO
    TITLE "12:cjc123_8118"
    INDEX 01 00:42:06
  TRACK 46 AUDIO
    TITLE "0:"
    INDEX 01 00:42:70
  TRACK 47 AUDIO
    TITLE "12:cjc123_8119"
    INDEX 01 00:43:54
  TRACK 48 AUDIO
    TITLE "0:"
    INDEX 01 00:45:06
  TRACK 49 AUDIO
    TITLE "12:cjc123_8120"
    INDEX 01 00:45:55
  TRACK 50 AUDIO
    TITLE "0:"
    INDEX 01 00:46:66
  TRACK 51 AUDIO
    TITLE "12:cjc123_8121"
    INDEX 01 00:47:52
  TRACK 52 AUDIO
    TITLE "0:"
    INDEX 01 00:48:49
  TRACK 53 AUDIO
    TITLE "12:cjc123_8122"
    INDEX 01 00:49:27
  TRACK 54 AUDIO
    TITLE "0:"
    INDEX 01 00:50:60
  TRACK 55 AUDIO
    TITLE "12:cjc123_8123"
    INDEX 01 00:51:42
  TRACK 56 AUDIO
    TITLE "0:"
    INDEX 01 00:52:32
  TRACK 57 AUDIO
    TITLE "12:cjc123_8124"
    INDEX 01 00:53:21
  TRACK 58 AUDIO
    TITLE "0:"
    INDEX 01 00:54:34
  TRACK 59 AUDIO
    TITLE "12:cjc123_8125"
    INDEX 01 00:55:10
  TRACK 60 AUDIO
    TITLE "0:"
    INDEX 01 00:55:59
  TRACK 61 AUDIO
    TITLE "12:cjc123_8126"
    INDEX 01 00:56:43
  TRACK 62 AUDIO
    TITLE "0:"
    INDEX 01 00:57:48
  TRACK 63 AUDIO
    TITLE "12:cjc123_8127"
    INDEX 01 00:58:22
  TRACK 64 AUDIO
    TITLE "0:"
    INDEX 01 00:59:20
  TRACK 65 AUDIO
    TITLE "12:cjc123_8128"
    INDEX 01 01:00:12
  TRACK 66 AUDIO
    TITLE "0:"
    INDEX 01 01:01:11
  TRACK 67 AUDIO
    TITLE "12:cjc123_8129"
    INDEX 01 01:01:64
  TRACK 68 AUDIO
    TITLE "0:"
    INDEX 01 01:02:63
  TRACK 69 AUDIO
    TITLE "12:cjc123_8130"
    INDEX 01 01:03:39
  TRACK 70 AUDIO
    TITLE "0:"
    INDEX 01 01:04:35
  TRACK 71 AUDIO
    TITLE "12:cjc123_8131"
    INDEX 01 01:05:17
  TRACK 72 AUDIO
    TITLE "0:"
    INDEX 01 01:06:20
  TRACK 73 AUDIO
    TITLE "12:cjc123_8132"
    INDEX 01 01:06:73
  TRACK 74 AUDIO
    TITLE "0:"
    INDEX 01 01:07:74
  TRACK 75 AUDIO
    TITLE "12:cjc123_8133"
    INDEX 01 01:08:44
  TRACK 76 AUDIO
    TITLE "0:"
    INDEX 01 01:09:57
  TRACK 77 AUDIO
    TITLE "12:cjc123_8134"
    INDEX 01 01:10:30
  TRACK 78 AUDIO
    TITLE "0:"
    INDEX 01 01:11:35
  TRACK 79 AUDIO
    TITLE "12:cjc123_8135"
    INDEX 01 01:12:13
  TRACK 80 AUDIO
    TITLE "0:"
    INDEX 01 01:13:18
  TRACK 81 AUDIO
    TITLE "12:cjc123_8136"
    INDEX 01 01:14:06
  TRACK 82 AUDIO
    TITLE "0:"
    INDEX 01 01:15:15
